<svg xmlns="http://www.w3.org/2000/svg" viewBox="0 0 189.97 150.77"><defs><style>.cls-1{fill:none;stroke:#0071bc;stroke-linecap:round;stroke-miterlimit:10;stroke-width:7px;}.cls-2{fill:#0071bc;}</style></defs><title>Envelope</title><g id="Layer_2" data-name="Layer 2"><g id="Layer_1-2" data-name="Layer 1"><g id="Envelope"><g id="Side_Back" data-name="Side/Back"><line class="cls-1" x1="166.51" y1="124.07" x2="186.31" y2="146.72"/><line class="cls-1" x1="4.12" y1="123.1" x2="22.66" y2="146.83"/><line class="cls-1" x1="166.06" y1="4.18" x2="186.47" y2="26.58"/><path class="cls-2" d="M183,30.71V143.77H26.89V30.71H183m4-7H22.89a3,3,0,0,0-3,3V147.77a3,3,0,0,0,3,3H187a3,3,0,0,0,3-3V26.71a3,3,0,0,0-3-3Z"/></g><g id="FrontEnvelope"><path class="cls-2" d="M163.07,7V120.06H7V7H163.07m1-7H6A6.24,6.24,0,0,0,.76,2.49,4.06,4.06,0,0,0,0,4.83V122.24c0,2.67,2.67,4.82,6,4.82H164.09c3.31,0,6-2.15,6-4.82V4.83A4.18,4.18,0,0,0,169,2a6.45,6.45,0,0,0-4.86-2Z"/><path class="cls-2" d="M151.64,7,84.57,61.12,17.49,7H151.64m12.45-7H6A6.24,6.24,0,0,0,.76,2.49L80.33,66.7a7,7,0,0,0,8.47,0L169,2a6.45,6.45,0,0,0-4.86-2Z"/></g></g></g></g></svg>