<svg xmlns="http://www.w3.org/2000/svg" viewBox="0 0 166.74 150"><defs><style>.cls-1,.cls-2{fill:none;stroke:#0071bc;stroke-miterlimit:10;stroke-width:7px;}.cls-2{stroke-linecap:round;}</style></defs><title>Asset 3</title><g id="Layer_2" data-name="Layer 2"><g id="Layer_1-2" data-name="Layer 1"><g id="Triangle"><path id="FrontTriangle" class="cls-1" d="M70.29,5.28a3.56,3.56,0,0,1,6.16,0l34.61,59.94,31.16,54a7.54,7.54,0,0,1-6.53,11.31H11.05a7.54,7.54,0,0,1-6.53-11.31l31.16-54Z"/><g id="Back_SideTriangle" data-name="Back/SideTriangle"><path class="cls-1" d="M90.29,21.28a3.56,3.56,0,0,1,6.16,0l34.61,59.94,31.16,54a7.54,7.54,0,0,1-6.53,11.31H31.05a7.54,7.54,0,0,1-6.53-11.31l31.16-54Z"/><line class="cls-2" x1="75.24" y1="4.01" x2="95.75" y2="20.42"/><line class="cls-2" x1="6.13" y1="128.69" x2="25.92" y2="144.57"/><line class="cls-2" x1="144.35" y1="128.92" x2="161.22" y2="142.78"/></g></g></g></g></svg>